# Blender v2.81 (sub 16) OBJ File: ''
# www.blender.org
mtllib modularBuildings_054.mtl
o modularBuildings_054
v 0.000000 0.500000 -0.093750
v 0.000000 0.500000 -0.281250
v 0.100000 0.500000 -0.281250
v 0.100000 0.500000 -0.093750
v 0.000000 0.625000 -1.000000
v 0.000000 0.625000 0.000000
v 0.000000 0.000000 0.000000
v 0.000000 0.078125 -0.093750
v 0.000000 0.000000 -0.375000
v 0.000000 0.078125 -0.281250
v 0.100000 0.078125 -0.093750
v 0.100000 0.078125 -0.281250
v 0.000000 0.500000 -0.375000
v 0.000000 0.500000 -0.625000
v 0.000000 0.500000 -0.718750
v 0.000000 0.500000 -0.906250
v 0.000000 0.078125 -0.906250
v 0.000000 0.000000 -1.000000
v 0.000000 0.078125 -0.718750
v 0.000000 0.000000 -0.625000
v 0.100000 0.000000 -0.625000
v 0.100000 0.500000 -0.625000
v 1.000000 0.000000 0.000000
v 0.100000 0.000000 -0.375000
v 1.000000 0.000000 -1.000000
v 1.000000 0.625000 0.000000
v 1.000000 0.625000 -1.000000
v 0.100000 0.500000 -0.375000
v 0.100000 0.500000 -0.718750
v 0.100000 0.078125 -0.718750
v 0.100000 0.500000 -0.906250
v 0.100000 0.078125 -0.906250
vt 0.000000 3.690940
vt 0.000000 11.072800
vt -3.937010 11.072800
vt -3.937010 3.690940
vt -3.690940 19.684999
vt -39.370098 24.606300
vt -11.072800 19.684999
vt 0.000000 24.606300
vt 0.000000 0.000000
vt -3.690940 3.075790
vt -14.763800 0.000000
vt -11.072800 3.075790
vt 0.000000 11.072800
vt 0.000000 3.690940
vt 3.937010 3.690940
vt 3.937010 11.072800
vt 0.000000 3.075790
vt 0.000000 19.684999
vt -3.937010 19.684999
vt -3.937010 3.075790
vt 0.000000 19.684999
vt 0.000000 3.075790
vt 3.937010 3.075790
vt 3.937010 19.684999
vt -14.763800 19.684999
vt -24.606300 19.684999
vt -28.297199 19.684999
vt -35.679100 19.684999
vt -35.679100 3.075790
vt -39.370098 0.000000
vt -28.297199 3.075790
vt -24.606300 0.000000
vt 0.000000 19.684999
vt 0.000000 0.000000
vt 3.937010 0.000000
vt 3.937010 19.684999
vt -39.370098 0.000000
vt 0.000000 14.763800
vt -3.937010 14.763800
vt -3.937010 24.606300
vt 0.000000 24.606300
vt 0.000000 39.370098
vt -39.370098 39.370098
vt 39.370098 0.000000
vt 39.370098 24.606300
vt 39.370098 0.000000
vt 39.370098 24.606300
vt 0.000000 24.606300
vt 0.000000 0.000000
vt 0.000000 0.000000
vt 0.000000 24.606300
vt -39.370098 24.606300
vt -39.370098 0.000000
vt 0.000000 0.000000
vt 0.000000 19.684999
vt -3.937010 19.684999
vt -3.937010 0.000000
vt 0.000000 14.763800
vt 0.000000 24.606300
vt -3.937010 24.606300
vt -3.937010 14.763800
vt 0.000000 3.075790
vt 0.000000 19.684999
vt -3.937010 19.684999
vt -3.937010 3.075790
vt 0.000000 28.297199
vt 0.000000 35.679100
vt -3.937010 35.679100
vt -3.937010 28.297199
vt 0.000000 19.684999
vt 0.000000 3.075790
vt 3.937010 3.075790
vt 3.937010 19.684999
vt 0.000000 35.679100
vt 0.000000 28.297199
vt 3.937010 28.297199
vt 3.937010 35.679100
vt -11.072800 19.684999
vt -11.072800 3.075790
vt -3.690940 3.075790
vt -3.690940 19.684999
vt -14.763800 19.684999
vt -24.606300 19.684999
vt -24.606300 0.000000
vt -14.763800 0.000000
vt -28.297199 19.684999
vt -35.679100 19.684999
vt -35.679100 3.075790
vt -28.297199 3.075790
vn 0.0000 -1.0000 -0.0000
vn -1.0000 0.0000 0.0000
vn 0.0000 1.0000 0.0000
vn 0.0000 0.0000 -1.0000
vn 0.0000 -0.0000 1.0000
vn 1.0000 -0.0000 0.0000
usemtl Brick.007
s 1
f 1/1/1 2/2/1 3/3/1 4/4/1
f 1/5/2 5/6/2 2/7/2
f 1/5/2 6/8/2 5/6/2
f 6/8/2 1/5/2 7/9/2
f 8/10/2 7/9/2 1/5/2
f 7/9/2 8/10/2 9/11/2
f 9/11/2 8/10/2 10/12/2
f 10/13/3 8/14/3 11/15/3 12/16/3
f 8/17/4 1/18/4 4/19/4 11/20/4
f 2/21/5 10/22/5 12/23/5 3/24/5
f 2/7/2 13/25/2 10/12/2
f 2/7/2 5/6/2 13/25/2
f 13/25/2 5/6/2 14/26/2
f 14/26/2 5/6/2 15/27/2
f 15/27/2 5/6/2 16/28/2
f 16/28/2 5/6/2 17/29/2
f 18/30/2 17/29/2 5/6/2
f 18/30/2 19/31/2 17/29/2
f 20/32/2 19/31/2 18/30/2
f 19/31/2 20/32/2 15/27/2
f 14/26/2 15/27/2 20/32/2
f 14/33/5 20/34/5 21/35/5 22/36/5
f 23/37/1 7/9/1 9/38/1 24/39/1 21/40/1 20/41/1 18/42/1 25/43/1
f 23/44/5 26/45/5 6/8/5 7/9/5
f 25/46/6 27/47/6 26/48/6 23/49/6
f 18/50/4 5/51/4 27/52/4 25/53/4
f 9/54/4 13/55/4 28/56/4 24/57/4
f 9/11/2 10/12/2 13/25/2
f 13/58/1 14/59/1 22/60/1 28/61/1
f 19/62/4 15/63/4 29/64/4 30/65/4
f 15/66/1 16/67/1 31/68/1 29/69/1
f 16/70/5 17/71/5 32/72/5 31/73/5
f 17/74/3 19/75/3 30/76/3 32/77/3
usemtl Glass.007
f 3/78/2 12/79/2 11/80/2 4/81/2
f 28/82/2 22/83/2 21/84/2 24/85/2
f 29/86/2 31/87/2 32/88/2 30/89/2
