# Blender v2.81 (sub 16) OBJ File: ''
# www.blender.org
mtllib modularBuildings_025.mtl
o modularBuildings_025
v 0.000000 0.212500 -1.000000
v 0.000000 0.837500 -1.000000
v 1.000000 0.837500 -1.000000
v 1.000000 0.212500 -1.000000
v 0.000000 0.290625 -0.906250
v 0.000000 0.290625 -0.718750
v 0.000000 0.212500 -0.625000
v 0.000000 0.618750 -0.718750
v 0.000000 0.643014 -0.721944
v 0.000000 0.712500 -0.625000
v 0.000000 0.665625 -0.731310
v 0.000000 0.685041 -0.746209
v 0.000000 0.699940 -0.765625
v 0.000000 0.712500 -0.375000
v 0.000000 0.699940 -0.234375
v 0.000000 0.709306 -0.211764
v 0.000000 0.712500 -0.187500
v 0.000000 0.709306 -0.163236
v 0.000000 0.837500 0.000000
v 0.000000 0.699940 -0.140625
v 0.000000 0.685041 -0.121209
v 0.000000 0.665625 -0.106310
v 0.000000 0.643014 -0.096944
v 0.000000 0.212500 0.000000
v 0.000000 0.618750 -0.093750
v 0.100000 0.643014 -0.096944
v 0.100000 0.618750 -0.093750
v 0.100000 0.665625 -0.106310
v 0.100000 0.685041 -0.121209
v 0.100000 0.699940 -0.140625
v 0.100000 0.709306 -0.163236
v 0.100000 0.712500 -0.187500
v 0.100000 0.709306 -0.211764
v 0.100000 0.699940 -0.234375
v 0.000000 0.685041 -0.253791
v 0.100000 0.685041 -0.253791
v 0.000000 0.665625 -0.268690
v 0.000000 0.643014 -0.278056
v 0.000000 0.618750 -0.281250
v 0.000000 0.290625 -0.281250
v 0.000000 0.212500 -0.375000
v 0.000000 0.290625 -0.093750
v 0.100000 0.290625 -0.093750
v 0.100000 0.290625 -0.281250
v 0.100000 0.665625 -0.268690
v 0.100000 0.643014 -0.278056
v 0.100000 0.618750 -0.281250
v 0.000000 0.000000 -0.375000
v 0.000000 0.000000 0.000000
v -0.100000 0.212500 -0.375000
v -0.100000 0.106250 -0.375000
v -0.200000 0.106250 -0.375000
v -0.200000 0.000000 -0.375000
v -0.100000 0.212500 -0.625000
v -0.100000 0.106250 -0.625000
v 0.000000 0.000000 -0.625000
v -0.200000 0.000000 -0.625000
v -0.200000 0.106250 -0.625000
v 0.000000 0.000000 -1.000000
v 1.000000 0.000000 0.000000
v 1.000000 0.000000 -1.000000
v 1.000000 0.212500 0.000000
v 1.000000 0.837500 0.000000
v 0.100000 0.212500 -0.625000
v 0.100000 0.212500 -0.375000
v 0.100000 0.712500 -0.625000
v 0.100000 0.712500 -0.375000
v 0.000000 0.709306 -0.788236
v 0.000000 0.712500 -0.812500
v 0.000000 0.709306 -0.836764
v 0.000000 0.699940 -0.859375
v 0.000000 0.685041 -0.878791
v 0.000000 0.665625 -0.893690
v 0.000000 0.643014 -0.903056
v 0.000000 0.618750 -0.906250
v 0.100000 0.290625 -0.906250
v 0.100000 0.618750 -0.906250
v 0.100000 0.290625 -0.718750
v 0.100000 0.618750 -0.718750
v 0.100000 0.643014 -0.721944
v 0.100000 0.665625 -0.731310
v 0.100000 0.685041 -0.746209
v 0.100000 0.699940 -0.765625
v 0.100000 0.709306 -0.788236
v 0.100000 0.712500 -0.812500
v 0.100000 0.709306 -0.836764
v 0.100000 0.699940 -0.859375
v 0.100000 0.685041 -0.878791
v 0.100000 0.665625 -0.893690
v 0.100000 0.643014 -0.903056
vt 0.000000 8.366140
vt 0.000000 32.972401
vt -39.370098 32.972401
vt -39.370098 8.366140
vt -39.370098 8.366140
vt -35.679100 11.441900
vt -39.370098 32.972401
vt -28.297199 11.441900
vt -24.606300 8.366140
vt -28.297199 24.360201
vt -28.423000 25.315500
vt -24.606300 28.051201
vt -28.791700 26.205700
vt -29.378300 26.970100
vt -30.142700 27.556700
vt -14.763800 28.051201
vt -9.227360 27.556700
vt -8.337180 27.925400
vt -7.381890 28.051201
vt -6.426600 27.925400
vt 0.000000 32.972401
vt -5.536420 27.556700
vt -4.772000 26.970100
vt -4.185440 26.205700
vt -3.816710 25.315500
vt 0.000000 8.366140
vt -3.690940 24.360201
vt 0.000000 24.633600
vt 0.000000 25.597099
vt -3.937010 25.597099
vt -3.937010 24.633600
vt 0.000000 24.849100
vt 0.000000 25.812599
vt -3.937010 25.812599
vt -3.937010 24.849100
vt 0.000000 23.338301
vt 0.000000 24.301800
vt -3.937010 24.301800
vt -3.937010 23.338301
vt 0.000000 20.204300
vt 0.000000 21.167801
vt -3.937010 21.167801
vt -3.937010 20.204300
vt 0.000000 15.660500
vt 0.000000 16.624001
vt -3.937010 16.624001
vt -3.937010 15.660500
vt 0.000000 10.016600
vt 0.000000 10.980200
vt -3.937010 10.980200
vt -3.937010 10.016600
vt 0.000000 -3.657320
vt 0.000000 -4.620850
vt 3.937010 -4.620850
vt 3.937010 -3.657320
vt 0.000000 2.984050
vt 0.000000 2.020520
vt 3.937010 2.020520
vt 3.937010 2.984050
vt 0.000000 9.454890
vt 0.000000 8.491360
vt 3.937010 8.491360
vt 3.937010 9.454890
vt -9.991780 26.970100
vt -10.578300 26.205700
vt -10.947100 25.315500
vt -11.072800 24.360201
vt -11.072800 11.441900
vt -14.763800 8.366140
vt -3.690940 11.441900
vt 0.000000 11.441900
vt 0.000000 24.360201
vt -3.937010 24.360201
vt -3.937010 11.441900
vt 0.000000 11.072800
vt 0.000000 3.690940
vt 3.937010 3.690940
vt 3.937010 11.072800
vt 0.000000 24.360201
vt 0.000000 11.441900
vt 3.937010 11.441900
vt 3.937010 24.360201
vt 0.000000 23.670099
vt 0.000000 22.706499
vt 3.937010 22.706499
vt 3.937010 23.670099
vt 0.000000 20.162800
vt 0.000000 19.199200
vt 3.937010 19.199200
vt 3.937010 20.162800
vt 0.000000 15.314200
vt 0.000000 14.350700
vt 3.937010 14.350700
vt 3.937010 15.314200
vt 39.370098 8.366140
vt 39.370098 32.972401
vt 0.000000 32.972401
vt 0.000000 8.366140
vt 39.370098 8.366140
vt 39.370098 32.972401
vt 0.000000 28.051201
vt 0.000000 8.366140
vt 3.937010 8.366140
vt 3.937010 28.051201
vt 0.000000 14.763800
vt 0.000000 24.606300
vt -3.937010 24.606300
vt -3.937010 14.763800
vt 0.000000 8.366140
vt 0.000000 28.051201
vt -3.937010 28.051201
vt -3.937010 8.366140
vt -31.032900 27.925400
vt -31.988199 28.051201
vt -32.943501 27.925400
vt -33.833698 27.556700
vt -34.598099 26.970100
vt -35.184601 26.205700
vt -35.553398 25.315500
vt -35.679100 24.360201
vt 0.000000 24.360201
vt 0.000000 11.441900
vt 3.937010 11.441900
vt 3.937010 24.360201
vt 0.000000 35.679100
vt 0.000000 28.297199
vt 3.937010 28.297199
vt 3.937010 35.679100
vt 0.000000 11.441900
vt 0.000000 24.360201
vt -3.937010 24.360201
vt -3.937010 11.441900
vt 0.000000 27.845400
vt 0.000000 28.808901
vt -3.937010 28.808901
vt -3.937010 27.845400
vt 0.000000 34.265499
vt 0.000000 35.229000
vt -3.937010 35.229000
vt -3.937010 34.265499
vt 0.000000 38.317699
vt 0.000000 39.281200
vt -3.937010 39.281200
vt -3.937010 38.317699
vt 0.000000 39.725700
vt 0.000000 40.689301
vt -3.937010 40.689301
vt -3.937010 39.725700
vt 0.000000 38.393700
vt 0.000000 39.357300
vt -3.937010 39.357300
vt -3.937010 38.393700
vt 0.000000 34.412399
vt 0.000000 35.375900
vt -3.937010 35.375900
vt -3.937010 34.412399
vt 0.000000 -28.053101
vt 0.000000 -29.016600
vt 3.937010 -29.016600
vt 3.937010 -28.053101
vt 0.000000 -19.749201
vt 0.000000 -20.712700
vt 3.937010 -20.712700
vt 3.937010 -19.749201
vt 0.000000 -10.066600
vt 0.000000 -11.030100
vt 3.937010 -11.030100
vt 3.937010 -10.066600
vt 0.000000 0.334864
vt 0.000000 -0.628666
vt 3.937010 -0.628666
vt 3.937010 0.334864
vt 0.000000 10.746300
vt 0.000000 9.782810
vt 3.937010 9.782810
vt 3.937010 10.746300
vt 0.000000 20.458300
vt 0.000000 19.494801
vt 3.937010 19.494801
vt 3.937010 20.458300
vt -11.072800 11.441900
vt -3.690940 11.441900
vt -3.690940 24.360201
vt -3.816710 25.315500
vt -4.185440 26.205700
vt -4.772000 26.970100
vt -5.536420 27.556700
vt -6.426600 27.925400
vt -7.381890 28.051201
vt -8.337180 27.925400
vt -9.227360 27.556700
vt -9.991780 26.970100
vt -10.578300 26.205700
vt -10.947100 25.315500
vt -11.072800 24.360201
vt -14.763800 28.051201
vt -24.606300 28.051201
vt -24.606300 8.366140
vt -14.763800 8.366140
vt -35.679100 11.441900
vt -28.297199 11.441900
vt -28.297199 24.360201
vt -28.423000 25.315500
vt -28.791700 26.205700
vt -29.378300 26.970100
vt -30.142700 27.556700
vt -31.032900 27.925400
vt -31.988199 28.051201
vt -32.943501 27.925400
vt -33.833698 27.556700
vt -34.598099 26.970100
vt -35.184601 26.205700
vt -35.553398 25.315500
vt -35.679100 24.360201
vt -14.763800 0.000000
vt 0.000000 0.000000
vt -3.937010 8.366140
vt -3.937010 4.183070
vt -7.874020 4.183070
vt -7.874020 0.000000
vt 0.000000 0.000000
vt -24.606300 8.366140
vt -24.606300 4.183070
vt -14.763800 4.183070
vt -14.763800 8.366140
vt 0.000000 0.000000
vt 7.874020 0.000000
vt 7.874020 4.183070
vt 3.937010 4.183070
vt 3.937010 8.366140
vt -39.370098 0.000000
vt -24.606300 0.000000
vt -39.370098 0.000000
vt 0.000000 14.763800
vt 7.874020 14.763800
vt 7.874020 24.606300
vt 0.000000 24.606300
vt 0.000000 39.370098
vt -39.370098 39.370098
vt 39.370098 0.000000
vt 39.370098 0.000000
vt 0.000000 0.000000
vt 0.000000 0.000000
vt -39.370098 0.000000
vt -14.763800 0.000000
vt -14.763800 4.183070
vt -24.606300 4.183070
vt -24.606300 0.000000
vt -3.937010 14.763800
vt -3.937010 24.606300
vt -7.874020 24.606300
vt -7.874020 14.763800
vt 3.937010 24.606300
vt 0.000000 24.606300
vt -3.937010 24.606300
vt -3.937010 14.763800
vt 0.000000 14.763800
vt 3.937010 14.763800
vn 0.0000 0.0000 -1.0000
vn -1.0000 0.0000 0.0000
vn 0.0000 -0.1305 -0.9914
vn 0.0000 -0.2588 -0.9659
vn 0.0000 -0.5000 -0.8660
vn 0.0000 -0.7071 -0.7071
vn 0.0000 -0.8660 -0.5000
vn 0.0000 -0.9659 -0.2588
vn 0.0000 -1.0000 -0.0000
vn 0.0000 -0.9659 0.2588
vn 0.0000 -0.8660 0.5000
vn 0.0000 -0.7071 0.7071
vn 0.0000 1.0000 0.0000
vn 0.0000 -0.0000 1.0000
vn 0.0000 -0.2588 0.9659
vn 0.0000 -0.1305 0.9914
vn 0.0000 -0.5000 0.8660
vn 1.0000 -0.0000 0.0000
usemtl Brick
s 1
f 1/1/1 2/2/1 3/3/1 4/4/1
f 1/5/2 5/6/2 2/7/2
f 1/5/2 6/8/2 5/6/2
f 7/9/2 6/8/2 1/5/2
f 6/8/2 7/9/2 8/10/2
f 7/9/2 9/11/2 8/10/2
f 10/12/2 9/11/2 7/9/2
f 10/12/2 11/13/2 9/11/2
f 10/12/2 12/14/2 11/13/2
f 10/12/2 13/15/2 12/14/2
f 10/12/2 2/7/2 13/15/2
f 14/16/2 2/7/2 10/12/2
f 15/17/2 2/7/2 14/16/2
f 16/18/2 2/7/2 15/17/2
f 17/19/2 2/7/2 16/18/2
f 18/20/2 2/7/2 17/19/2
f 18/20/2 19/21/2 2/7/2
f 20/22/2 19/21/2 18/20/2
f 21/23/2 19/21/2 20/22/2
f 22/24/2 19/21/2 21/23/2
f 23/25/2 19/21/2 22/24/2
f 19/21/2 23/25/2 24/26/2
f 24/26/2 23/25/2 25/27/2
f 25/28/3 23/29/4 26/30/4 27/31/3
f 23/32/4 22/33/5 28/34/5 26/35/4
f 22/36/5 21/37/6 29/38/6 28/39/5
f 21/40/6 20/41/7 30/42/7 29/43/6
f 20/44/7 18/45/8 31/46/8 30/47/7
f 18/48/8 17/49/9 32/50/9 31/51/8
f 17/52/9 16/53/10 33/54/10 32/55/9
f 16/56/10 15/57/11 34/58/11 33/59/10
f 15/60/11 35/61/12 36/62/12 34/63/11
f 15/17/2 14/16/2 35/64/2
f 35/64/2 14/16/2 37/65/2
f 37/65/2 14/16/2 38/66/2
f 38/66/2 14/16/2 39/67/2
f 39/67/2 14/16/2 40/68/2
f 41/69/2 40/68/2 14/16/2
f 41/69/2 42/70/2 40/68/2
f 24/26/2 42/70/2 41/69/2
f 42/70/2 24/26/2 25/27/2
f 42/71/1 25/72/1 27/73/1 43/74/1
f 40/75/13 42/76/13 43/77/13 44/78/13
f 39/79/14 40/80/14 44/81/14 47/82/14
f 38/83/15 39/84/16 47/85/16 46/86/15
f 37/87/17 38/88/15 46/89/15 45/90/17
f 35/91/12 37/92/17 45/93/17 36/94/12
f 4/95/18 3/96/18 63/97/18 62/98/18
f 62/99/14 63/100/14 19/21/14 24/26/14
f 10/101/14 7/102/14 64/103/14 66/104/14
f 14/105/9 10/106/9 66/107/9 67/108/9
f 41/109/1 14/110/1 67/111/1 65/112/1
f 13/15/2 2/7/2 68/113/2
f 68/113/2 2/7/2 69/114/2
f 69/114/2 2/7/2 70/115/2
f 70/115/2 2/7/2 71/116/2
f 71/116/2 2/7/2 72/117/2
f 72/117/2 2/7/2 73/118/2
f 73/118/2 2/7/2 74/119/2
f 74/119/2 2/7/2 75/120/2
f 75/120/2 2/7/2 5/6/2
f 75/121/14 5/122/14 76/123/14 77/124/14
f 5/125/13 6/126/13 78/127/13 76/128/13
f 6/129/1 8/130/1 79/131/1 78/132/1
f 8/133/3 9/134/4 80/135/4 79/136/3
f 9/137/4 11/138/5 81/139/5 80/140/4
f 11/141/5 12/142/6 82/143/6 81/144/5
f 12/145/6 13/146/7 83/147/7 82/148/6
f 13/149/7 68/150/8 84/151/8 83/152/7
f 68/153/8 69/154/9 85/155/9 84/156/8
f 69/157/9 70/158/10 86/159/10 85/160/9
f 70/161/10 71/162/11 87/163/11 86/164/10
f 71/165/11 72/166/12 88/167/12 87/168/11
f 72/169/12 73/170/17 89/171/17 88/172/12
f 73/173/17 74/174/15 90/175/15 89/176/17
f 74/177/15 75/178/16 77/179/16 90/180/15
usemtl Glass
f 44/181/2 43/182/2 27/183/2 26/184/2 28/185/2 29/186/2 30/187/2 31/188/2 32/189/2 33/190/2 34/191/2 36/192/2 45/193/2 46/194/2 47/195/2
f 67/196/2 66/197/2 64/198/2 65/199/2
f 76/200/2 78/201/2 79/202/2 80/203/2 81/204/2 82/205/2 83/206/2 84/207/2 85/208/2 86/209/2 87/210/2 88/211/2 89/212/2 90/213/2 77/214/2
usemtl Dark_brick
f 24/26/2 41/69/2 48/215/2 49/216/2
f 50/217/14 51/218/14 52/219/14 53/220/14 48/221/14 41/109/14
f 54/222/2 55/223/2 51/224/2 50/225/2
f 7/102/1 56/226/1 57/227/1 58/228/1 55/229/1 54/230/1
f 59/231/2 56/232/2 7/9/2 1/5/2
f 60/233/9 49/216/9 48/234/9 53/235/9 57/236/9 56/237/9 59/238/9 61/239/9
f 60/240/14 62/99/14 24/26/14 49/216/14
f 61/241/18 4/95/18 62/98/18 60/242/18
f 59/243/1 1/1/1 4/4/1 61/244/1
f 53/245/2 52/246/2 58/247/2 57/248/2
f 51/249/13 55/250/13 58/251/13 52/252/13
f 64/253/13 7/254/13 54/255/13 50/256/13 41/257/13 65/258/13
