# Blender v2.81 (sub 16) OBJ File: ''
# www.blender.org
mtllib modularBuildings_063.mtl
o modularBuildings_063
v -0.888225 0.190805 -0.680412
v -0.888225 0.190805 -0.319588
v -0.838225 0.190805 -0.319588
v -0.838225 0.190805 -0.680412
v -0.888225 0.125832 -0.745385
v -0.888225 0.125832 -0.254615
v -0.888225 0.268743 -0.319588
v -0.888225 0.312772 -0.254615
v -0.888225 0.410683 -0.500000
v -0.489420 0.312772 -0.254615
v -0.280543 0.410683 -0.500000
v -0.050000 0.518750 0.000000
v -1.118770 0.017765 0.000000
v -1.118770 0.017765 -1.000000
v -0.050000 0.518750 -1.000000
v -0.489420 0.312772 -0.745385
v -0.888225 0.312772 -0.745385
v -0.382753 0.362772 -0.745385
v -0.938225 0.312772 -0.745385
v -0.938225 0.362772 -0.745385
v -0.382753 0.362772 -0.254615
v -0.938225 0.362772 -0.254615
v -0.938225 0.312772 -0.254615
v -0.173877 0.460683 -0.500000
v -0.938225 0.460683 -0.500000
v -0.938225 0.410683 -0.500000
v -0.888225 0.340728 -0.500000
v -0.838225 0.340728 -0.500000
v -0.838225 0.268743 -0.319588
v -0.888225 0.268743 -0.680412
v -0.838225 0.268743 -0.680412
v 0.000000 0.518750 0.000000
v 0.000000 0.518750 -1.000000
v -1.090550 -0.042443 -0.000000
v -1.000000 0.000000 0.000000
v 0.000000 0.468750 0.000000
v -1.090550 -0.042443 -1.000000
v 0.000000 0.468750 -1.000000
v -1.000000 0.000000 -1.000000
v 0.000000 0.000000 -1.000000
v 0.000000 0.000000 0.000000
vt -34.969501 26.787901
vt -34.969501 12.582200
vt -33.000999 12.582200
vt -33.000999 26.787901
vt -29.345900 4.954010
vt -12.582200 7.512010
vt -26.787901 7.512010
vt -10.024200 4.954010
vt -12.582200 10.580400
vt -10.024200 12.313900
vt -19.684999 16.168600
vt 34.969501 12.313900
vt 19.268499 12.313900
vt 34.969501 4.954010
vt -19.268499 12.313900
vt -34.969501 12.313900
vt -34.969501 4.954010
vt -19.684999 13.414500
vt -29.345900 12.313900
vt 34.969501 15.607300
vt 34.969501 23.254700
vt 33.000999 23.254700
vt 33.000999 15.607300
vt -34.969501 -13.312000
vt -34.969501 -20.959299
vt -33.000999 -20.959299
vt -33.000999 -13.312000
vt -26.787901 10.580400
vt -34.969501 10.580400
vt -34.969501 7.512010
vt -33.000999 7.512010
vt -33.000999 10.580400
vt 34.969501 7.512010
vt 34.969501 10.580400
vt 33.000999 10.580400
vt 33.000999 7.512010
vt 0.000000 -0.000000
vt 39.370098 -0.000000
vt 0.000000 18.454700
vt 0.000000 0.000000
vt 0.000000 18.454700
vt -39.370098 0.000000
vt -19.268499 13.873900
vt -11.045000 24.275400
vt -34.969501 24.275400
vt -34.969501 13.873900
vt -10.024200 -12.220400
vt -0.000000 6.885910
vt -19.684999 -3.138290
vt -10.024200 -29.560801
vt -0.000000 -39.584999
vt -39.370098 -39.584999
vt -29.345900 -29.560801
vt -39.370098 6.885910
vt -29.345900 -12.220400
vt 15.069000 14.282400
vt 36.938000 12.313900
vt 36.938000 14.282400
vt 11.045000 -12.291300
vt 19.268499 -22.692801
vt 34.969501 -22.692801
vt 34.969501 -12.291300
vt -15.069000 14.282400
vt -36.938000 14.282400
vt -36.938000 12.313900
vt -15.069000 14.603400
vt -6.845530 25.004900
vt -36.938000 25.004900
vt -36.938000 14.603400
vt 6.845530 -11.561800
vt 15.069000 -21.963301
vt 36.938000 -21.963301
vt 36.938000 -11.561800
vt -10.024200 14.282400
vt -19.684999 18.137100
vt -29.345900 14.282400
vt -29.345900 12.313900
vt -19.684999 16.168600
vt -10.024200 12.313900
vt -34.969501 -22.692801
vt -34.969501 -12.291300
vt -36.938000 -12.291300
vt -36.938000 -22.692801
vt 34.969501 24.275400
vt 34.969501 13.873900
vt 36.938000 13.873900
vt 36.938000 24.275400
vt -1.968500 39.370098
vt -1.968500 0.000000
vt 0.000000 0.000000
vt 0.000000 39.370098
vt -1.968500 20.423201
vt -44.046001 0.699401
vt -42.934898 -1.671000
vt 0.000000 20.423201
vt 0.000000 16.709999
vt 0.000000 19.327900
vt -39.370098 19.327900
vt -39.370098 16.709999
vt 42.934898 -1.671000
vt 44.046001 0.699401
vt 1.968500 20.423201
vt 0.000000 20.423201
vt 39.370098 -35.647999
vt 0.000000 -35.647999
vt 0.000000 -39.584999
vt 39.370098 -39.584999
vt -12.582200 10.580400
vt -19.684999 13.414500
vt -26.787901 10.580400
vt -26.787901 7.512010
vt -12.582200 7.512010
vn 0.0000 1.0000 0.0000
vn -1.0000 0.0000 0.0000
vn 0.0000 0.0000 -1.0000
vn 0.0000 -0.0000 1.0000
vn 0.0000 -0.9288 -0.3706
vn 0.0000 -0.9288 0.3706
vn 0.0000 0.9288 0.3706
vn -0.4244 0.9055 0.0000
vn 0.0000 0.9288 -0.3706
vn -0.9055 -0.4244 -0.0000
vn 0.4244 -0.9055 -0.0000
usemtl Brick.006
s 1
f 1/1/1 2/2/1 3/3/1 4/4/1
f 5/5/2 2/6/2 1/7/2
f 6/8/2 2/6/2 5/5/2
f 2/6/2 6/8/2 7/9/2
f 8/10/2 7/9/2 6/8/2
f 7/9/2 8/10/2 9/11/2
f 17/12/3 16/13/3 5/14/3
f 10/15/4 8/16/4 6/17/4
f 27/18/2 9/11/2 17/19/2
f 7/9/2 9/11/2 27/18/2
f 7/20/5 27/21/5 28/22/5 29/23/5
f 27/24/6 30/25/6 31/26/6 28/27/6
f 27/18/2 17/19/2 30/28/2
f 30/28/2 17/19/2 1/7/2
f 5/5/2 1/7/2 17/19/2
f 30/29/4 1/30/4 4/31/4 31/32/4
f 2/33/3 7/34/3 29/35/3 3/36/3
f 40/37/3 39/38/3 38/39/3
f 41/40/4 36/41/4 35/42/4
usemtl Roof
f 10/43/7 11/44/7 9/45/7 8/46/7
f 10/47/8 12/48/8 11/49/8
f 6/50/8 12/48/8 10/47/8
f 6/50/8 13/51/8 12/48/8
f 13/51/8 6/50/8 14/52/8
f 5/53/8 14/52/8 6/50/8
f 14/52/8 5/53/8 15/54/8
f 15/54/8 5/53/8 16/55/8
f 18/56/3 16/13/3 17/12/3 19/57/3 20/58/3
f 11/59/9 16/60/9 17/61/9 9/62/9
f 15/54/8 16/55/8 11/49/8
f 10/47/8 11/49/8 16/55/8 5/53/8 6/50/8
f 10/15/4 21/63/4 22/64/4 23/65/4 8/16/4
f 21/66/7 24/67/7 25/68/7 22/69/7
f 24/70/9 18/71/9 20/72/9 25/73/9
f 22/74/2 25/75/2 20/76/2 19/77/2 26/78/2 23/79/2
f 17/80/6 9/81/6 26/82/6 19/83/6
f 9/84/5 8/85/5 23/86/5 26/87/5
f 15/54/8 11/49/8 12/48/8
f 15/88/1 12/89/1 32/90/1 33/91/1
f 12/92/4 13/93/4 34/94/4 35/42/4 36/41/4 32/95/4
f 34/96/10 13/97/10 14/98/10 37/99/10
f 38/39/3 39/38/3 37/100/3 14/101/3 15/102/3 33/103/3
f 39/104/11 35/105/11 34/106/11 37/107/11
usemtl Glass.006
f 29/108/2 28/109/2 31/110/2 4/111/2 3/112/2
