# Blender v2.81 (sub 16) OBJ File: ''
# www.blender.org
mtllib modularBuildings_042.mtl
o modularBuildings_042
v 0.100000 0.060000 -0.815855
v -0.090855 0.060000 -0.815855
v -0.090855 0.060000 -0.184145
v 0.100000 0.060000 -0.184145
v 0.100000 0.180000 -0.815855
v -0.090855 0.180000 -0.815855
v 0.100000 0.180000 -0.125000
v 0.100000 0.180000 -0.184145
v -0.090855 0.180000 -0.184145
v 0.100000 0.180000 -0.875000
v 0.000000 0.180000 -0.875000
v -0.150000 0.180000 -0.875000
v -0.150000 0.180000 -0.125000
v 0.000000 0.180000 -0.125000
v 0.100000 0.500000 -0.125000
v 0.100000 0.500000 -0.875000
v 0.000000 0.500000 -0.125000
v 0.000000 0.000000 -1.000000
v 0.000000 0.000000 -0.875000
v 0.000000 0.500000 -0.875000
v 0.000000 0.000000 -0.125000
v 0.000000 0.000000 0.000000
v 0.000000 0.625000 0.000000
v 0.000000 0.625000 -1.000000
v -0.150000 0.000000 -0.125000
v -0.150000 0.000000 -0.875000
v 1.000000 0.000000 -1.000000
v 1.000000 0.000000 0.000000
v 1.000000 0.625000 -1.000000
v 1.000000 0.625000 0.000000
vt 3.937010 32.120300
vt -3.576980 32.120300
vt -3.576980 7.249790
vt 3.937010 7.249790
vt 3.937010 7.086610
vt -3.576980 7.086610
vt -3.576980 2.362200
vt 3.937010 2.362200
vt 3.937010 4.921260
vt 3.937010 7.249790
vt -3.576980 7.249790
vt -3.576980 32.120300
vt 3.937010 32.120300
vt 3.937010 34.448799
vt 0.000000 34.448799
vt -5.905510 34.448799
vt -5.905510 4.921260
vt 0.000000 4.921260
vt -3.937010 7.086610
vt -3.937010 2.362200
vt 3.576980 2.362200
vt 3.576980 7.086610
vt 7.249790 2.362200
vt 32.120300 2.362200
vt 32.120300 7.086610
vt 7.249790 7.086610
vt -3.937010 19.684999
vt -3.937010 7.086610
vt 0.000000 7.086610
vt 0.000000 19.684999
vt -39.370098 0.000000
vt -34.448799 0.000000
vt -34.448799 7.086610
vt -34.448799 19.684999
vt -4.921260 19.684999
vt -4.921260 7.086610
vt -4.921260 0.000000
vt 0.000000 0.000000
vt 0.000000 24.606300
vt -39.370098 24.606300
vt 0.000000 0.000000
vt -5.905510 7.086610
vt -5.905510 0.000000
vt -34.448799 0.000000
vt -4.921260 0.000000
vt -4.921260 7.086610
vt -34.448799 7.086610
vt 0.000000 7.086610
vt 0.000000 0.000000
vt 5.905510 0.000000
vt 5.905510 7.086610
vt 0.000000 0.000000
vt 0.000000 24.606300
vt -39.370098 24.606300
vt -39.370098 0.000000
vt 0.000000 39.370098
vt 0.000000 0.000000
vt 39.370098 0.000000
vt 39.370098 39.370098
vt 39.370098 0.000000
vt 39.370098 24.606300
vt 39.370098 0.000000
vt 39.370098 24.606300
vt 0.000000 24.606300
vt 0.000000 0.000000
vt 0.000000 19.684999
vt 3.937010 7.086610
vt 3.937010 19.684999
vt -3.937010 4.921260
vt -0.000000 4.921260
vt -0.000000 34.448799
vt -3.937010 34.448799
vt -34.448799 7.086610
vt -32.120300 7.086610
vt -32.120300 2.362200
vt -7.249790 2.362200
vt -7.249790 7.086610
vt -4.921260 7.086610
vt -4.921260 19.684999
vt -34.448799 19.684999
vn 0.0000 1.0000 0.0000
vn 0.0000 0.0000 1.0000
vn 0.0000 0.0000 -1.0000
vn 1.0000 0.0000 0.0000
vn -1.0000 0.0000 0.0000
vn 0.0000 -1.0000 -0.0000
usemtl Brick.005
s 1
f 1/1/1 2/2/1 3/3/1 4/4/1
f 5/5/2 6/6/2 2/7/2 1/8/2
f 7/9/1 8/10/1 9/11/1 6/12/1 5/13/1 10/14/1 11/15/1 12/16/1 13/17/1 14/18/1
f 8/19/3 4/20/3 3/21/3 9/22/3
f 3/23/4 2/24/4 6/25/4 9/26/4
f 15/27/3 7/28/3 14/29/3 17/30/3
f 18/31/5 19/32/5 11/33/5 20/34/5 17/35/5 14/36/5 21/37/5 22/38/5 23/39/5 24/40/5
f 21/41/2 14/29/2 13/42/2 25/43/2
f 26/44/5 25/45/5 13/46/5 12/47/5
f 11/48/3 19/49/3 26/50/3 12/51/3
f 18/52/3 24/53/3 29/54/3 27/55/3
f 24/56/1 23/57/1 30/58/1 29/59/1
f 28/60/2 30/61/2 23/39/2 22/38/2
f 27/62/4 29/63/4 30/64/4 28/65/4
f 20/66/2 11/48/2 10/67/2 16/68/2
f 15/69/6 17/70/6 20/71/6 16/72/6
f 26/50/6 19/49/6 21/41/6 25/43/6
usemtl Glass.005
f 10/73/5 5/74/5 1/75/5 4/76/5 8/77/5 7/78/5 15/79/5 16/80/5
