# Blender v2.81 (sub 16) OBJ File: ''
# www.blender.org
mtllib modularBuildings_052.mtl
o modularBuildings_052
v -0.000000 0.468750 -1.000000
v -1.000000 0.000000 -1.000000
v -1.090550 -0.042443 -1.000000
v -1.118770 0.017765 -1.000000
v -0.050000 0.518750 -1.000000
v -0.000000 0.518750 -1.000000
v -0.000000 0.000000 -1.000000
v 0.000000 0.000000 0.000000
v -1.000000 0.000000 0.000000
v 0.000000 0.468750 0.000000
v 0.000000 0.518750 0.000000
v -0.050000 0.518750 0.000000
v -1.118770 0.017765 0.000000
v -1.090550 -0.042443 -0.000000
vt 0.000000 18.454700
vt 39.370098 0.000000
vt 42.934898 -1.671000
vt 44.046001 0.699401
vt 1.968500 20.423201
vt 0.000000 20.423201
vt -1.968500 39.370098
vt -1.968500 0.000000
vt 0.000000 0.000000
vt -0.000000 39.370098
vt -39.370098 6.885910
vt -39.370098 -39.584999
vt -0.000000 -39.584999
vt -0.000000 6.885910
vt 0.000000 16.709999
vt -0.000000 19.327900
vt -39.370098 19.327900
vt -39.370098 16.709999
vt -1.968500 20.423201
vt -44.046001 0.699401
vt -42.934898 -1.671000
vt -39.370098 -0.000000
vt 0.000000 18.454700
vt 0.000000 20.423201
vt 39.370098 -35.647999
vt 0.000000 -35.647999
vt -0.000000 -39.584999
vt 39.370098 -39.584999
vt 0.000000 0.000000
vt 0.000000 0.000000
vn 0.0000 0.0000 -1.0000
vn 0.0000 1.0000 0.0000
vn -0.4244 0.9055 0.0000
vn -0.9055 -0.4244 -0.0000
vn 0.0000 -0.0000 1.0000
vn 0.4244 -0.9055 -0.0000
usemtl Roof.001
s 1
f 1/1/1 2/2/1 3/3/1 4/4/1 5/5/1 6/6/1
f 5/7/2 12/8/2 11/9/2 6/10/2
f 5/11/3 4/12/3 13/13/3 12/14/3
f 14/15/4 13/16/4 4/17/4 3/18/4
f 12/19/5 13/20/5 14/21/5 9/22/5 10/23/5 11/24/5
f 2/25/6 9/26/6 14/27/6 3/28/6
usemtl Brick.009
f 7/29/1 2/2/1 1/1/1
f 8/30/5 10/23/5 9/22/5
